<?xml version="1.0" encoding="UTF-8" standalone="no"?>
<!DOCTYPE svg PUBLIC "-//W3C//DTD SVG 1.1//EN"
 "http://www.w3.org/Graphics/SVG/1.1/DTD/svg11.dtd">
<!-- Generated by graphviz version 9.0.0 (0)
 -->
<!-- Title: backtest_workflow Pages: 1 -->
<svg width="1496pt" height="177pt"
 viewBox="0.00 0.00 1495.50 177.00" xmlns="http://www.w3.org/2000/svg" xmlns:xlink="http://www.w3.org/1999/xlink">
<g id="graph0" class="graph" transform="scale(1 1) rotate(0) translate(4 173)">
<title>backtest_workflow</title>
<polygon fill="white" stroke="none" points="-4,4 -4,-173 1491.5,-173 1491.5,4 -4,4"/>
<g id="clust1" class="cluster">
<title>cluster_execution</title>
<polygon fill="none" stroke="black" points="291.5,-64 291.5,-161 1392.25,-161 1392.25,-64 291.5,-64"/>
<text text-anchor="middle" x="841.88" y="-143.7" font-family="Times,serif" font-size="14.00">Execution Loop</text>
</g>
<!-- Initialization -->
<g id="node1" class="node">
<title>Initialization</title>
<polygon fill="lightblue" stroke="black" points="106,-108 0,-108 0,-72 106,-72 106,-108"/>
<text text-anchor="middle" x="53" y="-85.33" font-family="Times,serif" font-size="14.00">Initialization</text>
</g>
<!-- AssetUniverse -->
<g id="node2" class="node">
<title>AssetUniverse</title>
<polygon fill="lightblue" stroke="black" points="262.5,-108 143,-108 143,-72 262.5,-72 262.5,-108"/>
<text text-anchor="middle" x="202.75" y="-85.33" font-family="Times,serif" font-size="14.00">AssetUniverse</text>
</g>
<!-- Initialization&#45;&gt;AssetUniverse -->
<g id="edge1" class="edge">
<title>Initialization&#45;&gt;AssetUniverse</title>
<path fill="none" stroke="black" d="M106.09,-90C114.2,-90 122.7,-90 131.14,-90"/>
<polygon fill="black" stroke="black" points="131.05,-93.5 141.05,-90 131.05,-86.5 131.05,-93.5"/>
</g>
<!-- AlphaModel -->
<g id="node3" class="node">
<title>AlphaModel</title>
<polygon fill="lightblue" stroke="black" points="400.25,-108 299.5,-108 299.5,-72 400.25,-72 400.25,-108"/>
<text text-anchor="middle" x="349.88" y="-85.33" font-family="Times,serif" font-size="14.00">AlphaModel</text>
</g>
<!-- AssetUniverse&#45;&gt;AlphaModel -->
<g id="edge2" class="edge">
<title>AssetUniverse&#45;&gt;AlphaModel</title>
<path fill="none" stroke="black" d="M262.78,-90C270.99,-90 279.45,-90 287.7,-90"/>
<polygon fill="black" stroke="black" points="287.67,-93.5 297.67,-90 287.67,-86.5 287.67,-93.5"/>
</g>
<!-- RiskModel -->
<g id="node4" class="node">
<title>RiskModel</title>
<polygon fill="lightblue" stroke="black" points="624,-36 533,-36 533,0 624,0 624,-36"/>
<text text-anchor="middle" x="578.5" y="-13.32" font-family="Times,serif" font-size="14.00">RiskModel</text>
</g>
<!-- AlphaModel&#45;&gt;RiskModel -->
<g id="edge3" class="edge">
<title>AlphaModel&#45;&gt;RiskModel</title>
<path fill="none" stroke="black" d="M400.61,-74.2C436.54,-62.78 485.08,-47.36 522.23,-35.56"/>
<polygon fill="black" stroke="black" points="522.96,-39 531.43,-32.64 520.84,-32.33 522.96,-39"/>
<text text-anchor="middle" x="447.12" y="-69.95" font-family="Times,serif" font-size="14.00">optional</text>
</g>
<!-- PortfolioConstruction -->
<g id="node5" class="node">
<title>PortfolioConstruction</title>
<polygon fill="lightblue" stroke="black" points="663,-108 494,-108 494,-72 663,-72 663,-108"/>
<text text-anchor="middle" x="578.5" y="-85.33" font-family="Times,serif" font-size="14.00">PortfolioConstruction</text>
</g>
<!-- AlphaModel&#45;&gt;PortfolioConstruction -->
<g id="edge5" class="edge">
<title>AlphaModel&#45;&gt;PortfolioConstruction</title>
<path fill="none" stroke="black" stroke-dasharray="1,5" d="M400.61,-84.3C424.54,-83.41 454.07,-83.09 482.1,-83.33"/>
<polygon fill="black" stroke="black" points="482.03,-86.82 492.07,-83.44 482.11,-79.83 482.03,-86.82"/>
</g>
<!-- AlphaModel&#45;&gt;PortfolioConstruction -->
<g id="edge13" class="edge">
<title>AlphaModel&#45;&gt;PortfolioConstruction</title>
<path fill="none" stroke="black" d="M400.61,-95.7C424.54,-96.59 454.07,-96.91 482.1,-96.67"/>
<polygon fill="black" stroke="black" points="482.11,-100.17 492.07,-96.56 482.03,-93.18 482.11,-100.17"/>
</g>
<!-- RiskModel&#45;&gt;PortfolioConstruction -->
<g id="edge4" class="edge">
<title>RiskModel&#45;&gt;PortfolioConstruction</title>
<path fill="none" stroke="black" d="M578.5,-36.28C578.5,-44.27 578.5,-52.26 578.5,-60.24"/>
<polygon fill="black" stroke="black" points="575,-60.02 578.5,-70.02 582,-60.02 575,-60.02"/>
</g>
<!-- OrderSizing -->
<g id="node6" class="node">
<title>OrderSizing</title>
<polygon fill="lightblue" stroke="black" points="805.25,-108 703,-108 703,-72 805.25,-72 805.25,-108"/>
<text text-anchor="middle" x="754.12" y="-85.33" font-family="Times,serif" font-size="14.00">OrderSizing</text>
</g>
<!-- PortfolioConstruction&#45;&gt;OrderSizing -->
<g id="edge6" class="edge">
<title>PortfolioConstruction&#45;&gt;OrderSizing</title>
<path fill="none" stroke="black" d="M663.26,-83.25C672.77,-83.23 682.33,-83.32 691.49,-83.51"/>
<polygon fill="black" stroke="black" points="691.22,-87 701.31,-83.77 691.41,-80.01 691.22,-87"/>
</g>
<!-- PortfolioConstruction&#45;&gt;OrderSizing -->
<g id="edge14" class="edge">
<title>PortfolioConstruction&#45;&gt;OrderSizing</title>
<path fill="none" stroke="black" d="M663.26,-96.75C672.77,-96.77 682.33,-96.68 691.49,-96.49"/>
<polygon fill="black" stroke="black" points="691.41,-99.99 701.31,-96.23 691.22,-93 691.41,-99.99"/>
</g>
<!-- Optimization -->
<g id="node7" class="node">
<title>Optimization</title>
<polygon fill="lightblue" stroke="black" points="808.25,-36 700,-36 700,0 808.25,0 808.25,-36"/>
<text text-anchor="middle" x="754.12" y="-13.32" font-family="Times,serif" font-size="14.00">Optimization</text>
</g>
<!-- OrderSizing&#45;&gt;Optimization -->
<g id="edge7" class="edge">
<title>OrderSizing&#45;&gt;Optimization</title>
<path fill="none" stroke="black" d="M754.12,-71.59C754.12,-64.28 754.12,-55.69 754.12,-47.56"/>
<polygon fill="black" stroke="black" points="757.63,-47.68 754.13,-37.68 750.63,-47.68 757.63,-47.68"/>
<text text-anchor="middle" x="742.5" y="-49.33" font-family="Times,serif" font-size="14.00">optional</text>
</g>
<!-- ExecutionHandling -->
<g id="node8" class="node">
<title>ExecutionHandling</title>
<polygon fill="lightblue" stroke="black" points="997.75,-108 845.25,-108 845.25,-72 997.75,-72 997.75,-108"/>
<text text-anchor="middle" x="921.5" y="-85.33" font-family="Times,serif" font-size="14.00">ExecutionHandling</text>
</g>
<!-- OrderSizing&#45;&gt;ExecutionHandling -->
<g id="edge15" class="edge">
<title>OrderSizing&#45;&gt;ExecutionHandling</title>
<path fill="none" stroke="black" d="M805.64,-90C814.59,-90 824.12,-90 833.74,-90"/>
<polygon fill="black" stroke="black" points="833.51,-93.5 843.51,-90 833.51,-86.5 833.51,-93.5"/>
</g>
<!-- Optimization&#45;&gt;ExecutionHandling -->
<g id="edge8" class="edge">
<title>Optimization&#45;&gt;ExecutionHandling</title>
<path fill="none" stroke="black" d="M797.28,-36.35C818.68,-45.67 844.89,-57.08 867.62,-66.98"/>
<polygon fill="black" stroke="black" points="866.18,-70.17 876.74,-70.95 868.97,-63.75 866.18,-70.17"/>
</g>
<!-- SimulationEngine -->
<g id="node9" class="node">
<title>SimulationEngine</title>
<polygon fill="lightblue" stroke="black" points="1178.25,-128 1034.75,-128 1034.75,-92 1178.25,-92 1178.25,-128"/>
<text text-anchor="middle" x="1106.5" y="-105.33" font-family="Times,serif" font-size="14.00">SimulationEngine</text>
</g>
<!-- ExecutionHandling&#45;&gt;SimulationEngine -->
<g id="edge9" class="edge">
<title>ExecutionHandling&#45;&gt;SimulationEngine</title>
<path fill="none" stroke="black" d="M997.99,-98.25C1006.25,-99.15 1014.69,-100.07 1023.02,-100.99"/>
<polygon fill="black" stroke="black" points="1022.48,-104.45 1032.8,-102.05 1023.24,-97.49 1022.48,-104.45"/>
</g>
<!-- PerformanceTracking -->
<g id="node10" class="node">
<title>PerformanceTracking</title>
<polygon fill="lightblue" stroke="black" points="1384.25,-118 1215.25,-118 1215.25,-82 1384.25,-82 1384.25,-118"/>
<text text-anchor="middle" x="1299.75" y="-95.33" font-family="Times,serif" font-size="14.00">PerformanceTracking</text>
</g>
<!-- ExecutionHandling&#45;&gt;PerformanceTracking -->
<g id="edge16" class="edge">
<title>ExecutionHandling&#45;&gt;PerformanceTracking</title>
<path fill="none" stroke="black" d="M998.25,-84.63C1010.45,-83.95 1022.94,-83.37 1034.75,-83 1098.5,-81.01 1114.63,-78.53 1178.25,-83 1186.53,-83.58 1195.11,-84.38 1203.69,-85.33"/>
<polygon fill="black" stroke="black" points="1203.12,-88.78 1213.46,-86.47 1203.93,-81.83 1203.12,-88.78"/>
</g>
<!-- SimulationEngine&#45;&gt;AlphaModel -->
<g id="edge12" class="edge">
<title>SimulationEngine&#45;&gt;AlphaModel</title>
<path fill="none" stroke="black" d="M1034.38,-119.69C1000.56,-123.51 959.51,-127 922.5,-127 577.5,-127 577.5,-127 577.5,-127 520.72,-127 456.97,-115.55 411.58,-105.38"/>
<polygon fill="black" stroke="black" points="412.46,-102 401.93,-103.17 410.9,-108.82 412.46,-102"/>
</g>
<!-- SimulationEngine&#45;&gt;PerformanceTracking -->
<g id="edge10" class="edge">
<title>SimulationEngine&#45;&gt;PerformanceTracking</title>
<path fill="none" stroke="black" d="M1178.71,-106.28C1186.82,-105.85 1195.17,-105.42 1203.53,-104.98"/>
<polygon fill="black" stroke="black" points="1203.57,-108.48 1213.38,-104.46 1203.21,-101.49 1203.57,-108.48"/>
</g>
<!-- Output -->
<g id="node11" class="node">
<title>Output</title>
<polygon fill="lightblue" stroke="black" points="1487.5,-118 1421.25,-118 1421.25,-82 1487.5,-82 1487.5,-118"/>
<text text-anchor="middle" x="1454.38" y="-95.33" font-family="Times,serif" font-size="14.00">Output</text>
</g>
<!-- PerformanceTracking&#45;&gt;Output -->
<g id="edge11" class="edge">
<title>PerformanceTracking&#45;&gt;Output</title>
<path fill="none" stroke="black" d="M1384.65,-100C1393.21,-100 1401.64,-100 1409.5,-100"/>
<polygon fill="black" stroke="black" points="1409.43,-103.5 1419.43,-100 1409.43,-96.5 1409.43,-103.5"/>
</g>
</g>
</svg>
